# xmcd CD database file
#
# Track frame offsets:
#	150
#	20635
#	40750
#	67197
#	83920
#	100857
#	119327
#	139242
#	157745
#	180110
#	199815
#
# Disc length: 2922 seconds
#
# Revision: 1
# Processed by: cddbd v1.5.2PL0 Copyright (c) Steve Scherf et al.
# Submitted via: CDex 1.70beta2
#
DISCID=8c0b680b
DTITLE=TOKYO BRASS STYLE - ブラスタ天国
DYEAR=2007
DGENRE=Jazz
TTITLE0=摩訶不思議アドベンチャー！「ドラゴンボール」より
TTITLE1=サザエさん一家「サザエさん」より
TTITLE2=おどるポンポコリン「ちびまる子ちゃん」より
TTITLE3=アタックNo.1の歌「アタックNo.1」より
TTITLE4=ラヴ・スコール「ルパン三世」より
TTITLE5=スキスキソング「ひみつのアッコちゃん」より
TTITLE6=ハクション大魔王のうた「ハクション大魔王」より
TTITLE7=妖怪人間ベム「妖怪人間ベム」より
TTITLE8=キャンディ・キャンディ「キャンディ・キャンディ」より
TTITLE9=キャッツ・アイ「キャッツ・アイ」より
TTITLE10=キャッツ・アイ～インストゥルメンタル
EXTD=YEAR: 2007
EXTT0=
EXTT1=
EXTT2=
EXTT3=
EXTT4=
EXTT5=
EXTT6=
EXTT7=
EXTT8=
EXTT9=
EXTT10=
PLAYORDER=
